<svg width="35" height="35" viewBox="0 0 16 20" fill="none" xmlns="http://www.w3.org/2000/svg">
    <g clip-path="url(#clip0_6_507)">
        <path d="M7.83129 0.148392C4.03604 0.148392 0.948364 3.93033 0.948364 8.57892C0.948364 9.09408 0.948364 13.0793 0.948364 13.1501C0.948364 14.0799 1.5659 14.8363 2.32495 14.8363H2.86274C3.05215 15.4904 3.56219 15.9603 4.1604 15.9603C4.91944 15.9603 5.53698 15.2039 5.53698 14.2742V9.70299C5.53698 8.77328 4.91944 8.01689 4.1604 8.01689C3.56219 8.01689 3.05215 8.48682 2.86274 9.14096H2.32495C2.16407 9.14096 2.00971 9.17524 1.86609 9.23763V8.57892C1.86609 4.55014 4.54208 1.27246 7.83129 1.27246C11.1205 1.27246 13.7965 4.55014 13.7965 8.57892V9.23763C13.6529 9.17524 13.4985 9.14096 13.3376 9.14096H12.7998C12.6104 8.48682 12.1004 8.01689 11.5022 8.01689C10.7431 8.01689 10.1256 8.77328 10.1256 9.70299V14.2742C10.1256 15.2039 10.7431 15.9603 11.5022 15.9603C11.6411 15.9603 11.7752 15.9348 11.9017 15.8877C11.7301 16.5794 11.2046 17.0844 10.5845 17.0844H9.12895C8.93953 16.4303 8.42949 15.9603 7.83129 15.9603C7.07224 15.9603 6.4547 16.7167 6.4547 17.6464C6.4547 18.5761 7.07224 19.3325 7.83129 19.3325C8.42949 19.3325 8.93953 18.8626 9.12895 18.2085H10.5845C11.8495 18.2085 12.8788 16.9478 12.8788 15.3983V14.8363H13.3376C14.0967 14.8363 14.7142 14.0799 14.7142 13.1501C14.7142 13.0803 14.7142 9.09367 14.7142 8.57892C14.7142 3.93033 11.6265 0.148392 7.83129 0.148392ZM3.70153 9.70299C3.70153 9.39309 3.90738 9.14096 4.1604 9.14096C4.41341 9.14096 4.61926 9.39309 4.61926 9.70299V14.2742C4.61926 14.5841 4.41341 14.8363 4.1604 14.8363C3.90738 14.8363 3.70153 14.5841 3.70153 14.2742V9.70299ZM2.32495 10.265H2.78381V13.7122H2.32495C2.07193 13.7122 1.86609 13.4601 1.86609 13.1501V10.8271C1.86609 10.5172 2.07193 10.265 2.32495 10.265ZM7.83129 18.2085C7.57827 18.2085 7.37243 17.9563 7.37243 17.6464C7.37243 17.3365 7.57827 17.0844 7.83129 17.0844C8.0843 17.0844 8.29015 17.3365 8.29015 17.6464C8.29015 17.9563 8.0843 18.2085 7.83129 18.2085ZM11.961 14.2742C11.961 14.5841 11.7552 14.8363 11.5022 14.8363C11.2492 14.8363 11.0433 14.5841 11.0433 14.2742V9.70299C11.0433 9.39309 11.2492 9.14096 11.5022 9.14096C11.7552 9.14096 11.961 9.39309 11.961 9.70299V14.2742ZM13.7965 13.1501C13.7965 13.4601 13.5906 13.7122 13.3376 13.7122H12.8788V10.265H13.3376C13.5906 10.265 13.7965 10.5172 13.7965 10.8271V13.1501Z"
              fill="white"/>
    </g>
    <defs>
        <clipPath id="clip0_6_507">
            <rect width="15.6625" height="19.1841" fill="white" transform="translate(0 0.148392)"/>
        </clipPath>
    </defs>
</svg>
